<?xml version="1.0" encoding="UTF-8" standalone="no"?><!DOCTYPE svg PUBLIC "-//W3C//DTD SVG 1.1//EN" "http://www.w3.org/Graphics/SVG/1.1/DTD/svg11.dtd"><!-- Generated by graphviz version 2.40.1 (20161225.0304)
 --><!-- Title: dfa_regex Pages: 1 --><svg xmlns="http://www.w3.org/2000/svg" xmlns:xlink="http://www.w3.org/1999/xlink" width="195pt" height="158pt" viewBox="0.00 0.00 195.23 157.77">
<g id="graph0" class="graph" transform="scale(1 1) rotate(0) translate(4 153.7731)">
<title>dfa_regex</title>
<polygon fill="#ffffff" stroke="transparent" points="-4,4 -4,-153.7731 191.2304,-153.7731 191.2304,4 -4,4"/>
<!-- 13 -->
<g id="node1" class="node">
<title>13</title>
<ellipse fill="none" stroke="#000000" cx="24.6935" cy="-24.6935" rx="20.8568" ry="20.8568"/>
<ellipse fill="none" stroke="#000000" cx="24.6935" cy="-24.6935" rx="24.8884" ry="24.8884"/>
<text text-anchor="middle" x="24.6935" y="-20.4935" font-family="Times,serif" font-size="14.00" fill="#000000">13</text>
</g>
<!-- 13&#45;&gt;13 -->
<g id="edge6" class="edge">
<title>13-&gt;13</title>
<path fill="none" stroke="#000000" d="M48.8328,-31.3841C58.8746,-31.8456 67.3869,-29.6153 67.3869,-24.6935 67.3869,-21.6173 64.0618,-19.5925 59.1163,-18.6192"/>
<polygon fill="#000000" stroke="#000000" points="59.0243,-15.1075 48.8328,-18.0028 58.6054,-22.095 59.0243,-15.1075"/>
<text text-anchor="middle" x="70.8869" y="-20.4935" font-family="Times,serif" font-size="14.00" fill="#000000">b</text>
</g>
<!-- 12 -->
<g id="node3" class="node">
<title>12</title>
<ellipse fill="none" stroke="#000000" cx="24.6935" cy="-125.0796" rx="20.8568" ry="20.8568"/>
<ellipse fill="none" stroke="#000000" cx="24.6935" cy="-125.0796" rx="24.8884" ry="24.8884"/>
<text text-anchor="middle" x="24.6935" y="-120.8796" font-family="Times,serif" font-size="14.00" fill="#000000">12</text>
</g>
<!-- 13&#45;&gt;12 -->
<g id="edge5" class="edge">
<title>13-&gt;12</title>
<path fill="none" stroke="#000000" d="M18.8343,-48.7384C17.8908,-61.3109 17.6968,-76.9202 18.2521,-90.7418"/>
<polygon fill="#000000" stroke="#000000" points="14.7664,-91.0954 18.8229,-100.8829 21.7554,-90.702 14.7664,-91.0954"/>
<text text-anchor="middle" x="15.4359" y="-73.9401" font-family="Times,serif" font-size="14.00" fill="#000000">a</text>
</g>
<!-- 11 -->
<g id="node2" class="node">
<title>11</title>
<ellipse fill="none" stroke="#000000" cx="111.6304" cy="-74.8865" rx="20.8568" ry="20.8568"/>
<ellipse fill="none" stroke="#000000" cx="111.6304" cy="-74.8865" rx="24.8884" ry="24.8884"/>
<text text-anchor="middle" x="111.6304" y="-70.6865" font-family="Times,serif" font-size="14.00" fill="#000000">11</text>
</g>
<!-- 11&#45;&gt;13 -->
<g id="edge7" class="edge">
<title>11-&gt;13</title>
<path fill="none" stroke="#000000" d="M90.1404,-62.4793C79.5866,-56.386 66.6872,-48.9385 55.1388,-42.2711"/>
<polygon fill="#000000" stroke="#000000" points="56.6479,-39.1009 46.2376,-37.132 53.1478,-45.1631 56.6479,-39.1009"/>
<text text-anchor="middle" x="69.1396" y="-56.5752" font-family="Times,serif" font-size="14.00" fill="#000000">b</text>
</g>
<!-- 11&#45;&gt;12 -->
<g id="edge2" class="edge">
<title>11-&gt;12</title>
<path fill="none" stroke="#000000" d="M90.1404,-87.2938C79.5866,-93.387 66.6872,-100.8345 55.1388,-107.502"/>
<polygon fill="#000000" stroke="#000000" points="53.1478,-104.61 46.2376,-112.6411 56.6479,-110.6722 53.1478,-104.61"/>
<text text-anchor="middle" x="69.5323" y="-101.5979" font-family="Times,serif" font-size="14.00" fill="#000000">a</text>
</g>
<!-- 12&#45;&gt;13 -->
<g id="edge4" class="edge">
<title>12-&gt;13</title>
<path fill="none" stroke="#000000" d="M30.5526,-101.0346C31.4961,-88.4621 31.6902,-72.8529 31.1348,-59.0313"/>
<polygon fill="#000000" stroke="#000000" points="34.6205,-58.6776 30.564,-48.8902 27.6316,-59.0711 34.6205,-58.6776"/>
<text text-anchor="middle" x="27.3437" y="-84.233" font-family="Times,serif" font-size="14.00" fill="#000000">b</text>
</g>
<!-- 12&#45;&gt;12 -->
<g id="edge3" class="edge">
<title>12-&gt;12</title>
<path fill="none" stroke="#000000" d="M48.8328,-131.7703C58.8746,-132.2317 67.3869,-130.0015 67.3869,-125.0796 67.3869,-122.0034 64.0618,-119.9787 59.1163,-119.0054"/>
<polygon fill="#000000" stroke="#000000" points="59.0243,-115.4937 48.8328,-118.3889 58.6054,-122.4811 59.0243,-115.4937"/>
<text text-anchor="middle" x="70.4942" y="-120.8796" font-family="Times,serif" font-size="14.00" fill="#000000">a</text>
</g>
<!-- ENTRY -->
<!-- ENTRY&#45;&gt;11 -->
<g id="edge1" class="edge">
<title>ENTRY-&gt;11</title>
<path fill="none" stroke="#000000" d="M183.6061,-74.8865C178.2894,-74.8865 162.1941,-74.8865 146.5691,-74.8865"/>
<polygon fill="#000000" stroke="#000000" points="146.4872,-71.3866 136.4871,-74.8865 146.4871,-78.3866 146.4872,-71.3866"/>
</g>
</g>
</svg>