<?xml version="1.0" encoding="UTF-8" standalone="no"?><!DOCTYPE svg PUBLIC "-//W3C//DTD SVG 1.1//EN" "http://www.w3.org/Graphics/SVG/1.1/DTD/svg11.dtd"><!-- Generated by graphviz version 2.40.1 (20161225.0304)
 --><!-- Title: dfa_regex Pages: 1 --><svg xmlns="http://www.w3.org/2000/svg" xmlns:xlink="http://www.w3.org/1999/xlink" width="111pt" height="302pt" viewBox="0.00 0.00 110.60 302.36">
<g id="graph0" class="graph" transform="scale(1 1) rotate(0) translate(4 298.3607)">
<title>dfa_regex</title>
<polygon fill="#ffffff" stroke="transparent" points="-4,4 -4,-298.3607 106.6015,-298.3607 106.6015,4 -4,4"/>
<!-- 13 -->
<g id="node1" class="node">
<title>13</title>
<ellipse fill="none" stroke="#000000" cx="24.6935" cy="-126.8804" rx="20.8568" ry="20.8568"/>
<ellipse fill="none" stroke="#000000" cx="24.6935" cy="-126.8804" rx="24.8884" ry="24.8884"/>
<text text-anchor="middle" x="24.6935" y="-122.6804" font-family="Times,serif" font-size="14.00" fill="#000000">13</text>
</g>
<!-- 13&#45;&gt;13 -->
<g id="edge6" class="edge">
<title>13-&gt;13</title>
<path fill="none" stroke="#000000" d="M47.9685,-136.1089C58.3813,-136.9878 67.3869,-133.9116 67.3869,-126.8804 67.3869,-122.376 63.691,-119.4947 58.2969,-118.2367"/>
<polygon fill="#000000" stroke="#000000" points="58.1504,-114.7229 47.9685,-117.6518 57.7546,-121.7117 58.1504,-114.7229"/>
<text text-anchor="middle" x="70.8869" y="-122.6804" font-family="Times,serif" font-size="14.00" fill="#000000">b</text>
</g>
<!-- 12 -->
<g id="node3" class="node">
<title>12</title>
<ellipse fill="none" stroke="#000000" cx="53.6935" cy="-24.6935" rx="20.8568" ry="20.8568"/>
<ellipse fill="none" stroke="#000000" cx="53.6935" cy="-24.6935" rx="24.8884" ry="24.8884"/>
<text text-anchor="middle" x="53.6935" y="-20.4935" font-family="Times,serif" font-size="14.00" fill="#000000">12</text>
</g>
<!-- 13&#45;&gt;12 -->
<g id="edge5" class="edge">
<title>13-&gt;12</title>
<path fill="none" stroke="#000000" d="M23.7033,-102.1015C23.9191,-91.2381 25.0698,-78.4658 28.4789,-67.3869 29.8546,-62.9158 31.7826,-58.419 33.9662,-54.109"/>
<polygon fill="#000000" stroke="#000000" points="37.2049,-55.4891 39.04,-45.0543 31.0982,-52.0672 37.2049,-55.4891"/>
<text text-anchor="middle" x="31.8008" y="-71.5869" font-family="Times,serif" font-size="14.00" fill="#000000">a</text>
</g>
<!-- 11 -->
<g id="node2" class="node">
<title>11</title>
<ellipse fill="none" stroke="#000000" cx="67.6935" cy="-229.0673" rx="20.8568" ry="20.8568"/>
<ellipse fill="none" stroke="#000000" cx="67.6935" cy="-229.0673" rx="24.8884" ry="24.8884"/>
<text text-anchor="middle" x="67.6935" y="-224.8673" font-family="Times,serif" font-size="14.00" fill="#000000">11</text>
</g>
<!-- 11&#45;&gt;13 -->
<g id="edge7" class="edge">
<title>11-&gt;13</title>
<path fill="none" stroke="#000000" d="M58.0434,-206.1345C52.2342,-192.3292 44.7464,-174.5349 38.3381,-159.306"/>
<polygon fill="#000000" stroke="#000000" points="41.4159,-157.5962 34.3113,-149.7366 34.9639,-160.3113 41.4159,-157.5962"/>
<text text-anchor="middle" x="53.1935" y="-173.7738" font-family="Times,serif" font-size="14.00" fill="#000000">b</text>
</g>
<!-- 11&#45;&gt;12 -->
<g id="edge2" class="edge">
<title>11-&gt;12</title>
<path fill="none" stroke="#000000" d="M75.1251,-205.0836C82.0353,-179.4725 90.3391,-137.7612 83.6935,-102.1869 80.7942,-86.6672 74.8913,-70.2547 69.0827,-56.5491"/>
<polygon fill="#000000" stroke="#000000" points="72.1524,-54.8358 64.9141,-47.099 65.7478,-57.661 72.1524,-54.8358"/>
<text text-anchor="middle" x="88.8008" y="-122.6804" font-family="Times,serif" font-size="14.00" fill="#000000">a</text>
</g>
<!-- 12&#45;&gt;13 -->
<g id="edge4" class="edge">
<title>12-&gt;13</title>
<path fill="none" stroke="#000000" d="M46.9368,-48.5016C43.1628,-61.8001 38.3984,-78.5883 34.2481,-93.2127"/>
<polygon fill="#000000" stroke="#000000" points="30.8558,-92.3464 31.4927,-102.9221 37.5899,-94.2575 30.8558,-92.3464"/>
<text text-anchor="middle" x="45.1935" y="-71.5869" font-family="Times,serif" font-size="14.00" fill="#000000">b</text>
</g>
<!-- 12&#45;&gt;12 -->
<g id="edge3" class="edge">
<title>12-&gt;12</title>
<path fill="none" stroke="#000000" d="M76.9685,-33.922C87.3813,-34.8009 96.3869,-31.7247 96.3869,-24.6935 96.3869,-20.1891 92.691,-17.3078 87.2969,-16.0498"/>
<polygon fill="#000000" stroke="#000000" points="87.1504,-12.536 76.9685,-15.4649 86.7546,-19.5248 87.1504,-12.536"/>
<text text-anchor="middle" x="99.4942" y="-20.4935" font-family="Times,serif" font-size="14.00" fill="#000000">a</text>
</g>
<!-- ENTRY -->
<!-- ENTRY&#45;&gt;11 -->
<g id="edge1" class="edge">
<title>ENTRY-&gt;11</title>
<path fill="none" stroke="#000000" d="M67.6935,-290.729C67.6935,-286.5143 67.6935,-275.6059 67.6935,-264.1143"/>
<polygon fill="#000000" stroke="#000000" points="71.1936,-264.0191 67.6935,-254.0192 64.1936,-264.0192 71.1936,-264.0191"/>
</g>
</g>
</svg>