<?xml version="1.0" encoding="UTF-8" standalone="no"?><!DOCTYPE svg PUBLIC "-//W3C//DTD SVG 1.1//EN" "http://www.w3.org/Graphics/SVG/1.1/DTD/svg11.dtd"><!-- Generated by graphviz version 2.40.1 (20161225.0304)
 --><!-- Title: nfa_regex Pages: 1 --><svg xmlns="http://www.w3.org/2000/svg" xmlns:xlink="http://www.w3.org/1999/xlink" width="204pt" height="631pt" viewBox="0.00 0.00 203.69 630.79">
<g id="graph0" class="graph" transform="scale(1 1) rotate(0) translate(4 626.7869)">
<title>nfa_regex</title>
<polygon fill="#ffffff" stroke="transparent" points="-4,4 -4,-626.7869 199.6935,-626.7869 199.6935,4 -4,4"/>
<!-- 10 -->
<g id="node1" class="node">
<title>10</title>
<ellipse fill="none" stroke="#000000" cx="24.6935" cy="-379.8935" rx="20.8568" ry="20.8568"/>
<ellipse fill="none" stroke="#000000" cx="24.6935" cy="-379.8935" rx="24.8884" ry="24.8884"/>
<text text-anchor="middle" x="24.6935" y="-375.6935" font-family="Times,serif" font-size="14.00" fill="#000000">10</text>
</g>
<!-- ENTRY -->
<!-- 0 -->
<g id="node3" class="node">
<title>0</title>
<ellipse fill="none" stroke="#000000" cx="172.6935" cy="-564.1869" rx="18" ry="18"/>
<text text-anchor="middle" x="172.6935" y="-559.9869" font-family="Times,serif" font-size="14.00" fill="#000000">0</text>
</g>
<!-- ENTRY&#45;&gt;0 -->
<g id="edge1" class="edge">
<title>ENTRY-&gt;0</title>
<path fill="none" stroke="#000000" d="M172.6935,-619.0971C172.6935,-614.7347 172.6935,-603.4762 172.6935,-592.2811"/>
<polygon fill="#000000" stroke="#000000" points="176.1936,-592.2173 172.6935,-582.2173 169.1936,-592.2173 176.1936,-592.2173"/>
</g>
<!-- 1 -->
<g id="node4" class="node">
<title>1</title>
<ellipse fill="none" stroke="#000000" cx="172.6935" cy="-475.3869" rx="18" ry="18"/>
<text text-anchor="middle" x="172.6935" y="-471.1869" font-family="Times,serif" font-size="14.00" fill="#000000">1</text>
</g>
<!-- 0&#45;&gt;1 -->
<g id="edge2" class="edge">
<title>0-&gt;1</title>
<path fill="none" stroke="#000000" d="M172.6935,-545.7875C172.6935,-533.6818 172.6935,-517.5945 172.6935,-503.8543"/>
<polygon fill="#000000" stroke="#000000" points="176.1935,-503.4589 172.6935,-493.4589 169.1935,-503.459 176.1935,-503.4589"/>
<text text-anchor="start" x="172.6935" y="-515.5869" font-family="Times,serif" font-size="14.00" fill="#000000">ε</text>
</g>
<!-- 2 -->
<g id="node5" class="node">
<title>2</title>
<ellipse fill="none" stroke="#000000" cx="141.6935" cy="-379.8935" rx="18" ry="18"/>
<text text-anchor="middle" x="141.6935" y="-375.6935" font-family="Times,serif" font-size="14.00" fill="#000000">2</text>
</g>
<!-- 1&#45;&gt;2 -->
<g id="edge3" class="edge">
<title>1-&gt;2</title>
<path fill="none" stroke="#000000" d="M167.0076,-457.8719C162.3755,-443.6033 155.7571,-423.2155 150.4493,-406.8652"/>
<polygon fill="#000000" stroke="#000000" points="153.76,-405.7281 147.3433,-397.2974 147.102,-407.8895 153.76,-405.7281"/>
<text text-anchor="start" x="160.6935" y="-426.7869" font-family="Times,serif" font-size="14.00" fill="#000000">ε</text>
</g>
<!-- 9 -->
<g id="node6" class="node">
<title>9</title>
<ellipse fill="none" stroke="#000000" cx="94.6935" cy="-475.3869" rx="18" ry="18"/>
<text text-anchor="middle" x="94.6935" y="-471.1869" font-family="Times,serif" font-size="14.00" fill="#000000">9</text>
</g>
<!-- 2&#45;&gt;9 -->
<g id="edge4" class="edge">
<title>2-&gt;9</title>
<path fill="none" stroke="#000000" d="M130.3912,-394.2957C124.4962,-402.2982 117.4993,-412.6262 112.5329,-422.5869 108.5426,-430.5898 105.1083,-439.696 102.3487,-448.0659"/>
<polygon fill="#000000" stroke="#000000" points="98.9532,-447.1981 99.3251,-457.7864 105.6374,-449.2773 98.9532,-447.1981"/>
<text text-anchor="start" x="111.6935" y="-426.7869" font-family="Times,serif" font-size="14.00" fill="#000000">ε</text>
</g>
<!-- 3 -->
<g id="node7" class="node">
<title>3</title>
<ellipse fill="none" stroke="#000000" cx="141.6935" cy="-284.4" rx="18" ry="18"/>
<text text-anchor="middle" x="141.6935" y="-280.2" font-family="Times,serif" font-size="14.00" fill="#000000">3</text>
</g>
<!-- 2&#45;&gt;3 -->
<g id="edge7" class="edge">
<title>2-&gt;3</title>
<path fill="none" stroke="#000000" d="M141.6935,-361.4814C141.6935,-347.6541 141.6935,-328.468 141.6935,-312.6968"/>
<polygon fill="#000000" stroke="#000000" points="145.1936,-312.4317 141.6935,-302.4317 138.1936,-312.4318 145.1936,-312.4317"/>
<text text-anchor="start" x="141.6935" y="-324.6" font-family="Times,serif" font-size="14.00" fill="#000000">ε</text>
</g>
<!-- 9&#45;&gt;10 -->
<g id="edge5" class="edge">
<title>9-&gt;10</title>
<path fill="none" stroke="#000000" d="M80.1224,-464.1159C72.1981,-457.4956 62.601,-448.6302 55.5329,-439.3869 49.1197,-431.0001 43.3779,-421.0832 38.6375,-411.7749"/>
<polygon fill="#000000" stroke="#000000" points="41.7673,-410.2077 34.243,-402.7487 35.4735,-413.2719 41.7673,-410.2077"/>
<text text-anchor="start" x="55.6935" y="-426.7869" font-family="Times,serif" font-size="14.00" fill="#000000">ε</text>
</g>
<!-- 9&#45;&gt;2 -->
<g id="edge6" class="edge">
<title>9-&gt;2</title>
<path fill="none" stroke="#000000" d="M105.7852,-461.2027C110.4759,-454.7791 115.7535,-446.9439 119.6935,-439.3869 125.0008,-429.2071 129.6339,-417.4522 133.2618,-407.0933"/>
<polygon fill="#000000" stroke="#000000" points="136.6815,-407.9036 136.5423,-397.3097 130.0447,-405.6782 136.6815,-407.9036"/>
<text text-anchor="start" x="126.6935" y="-426.7869" font-family="Times,serif" font-size="14.00" fill="#000000">ε</text>
</g>
<!-- 6 -->
<g id="node8" class="node">
<title>6</title>
<ellipse fill="none" stroke="#000000" cx="177.6935" cy="-195.6" rx="18" ry="18"/>
<text text-anchor="middle" x="177.6935" y="-191.4" font-family="Times,serif" font-size="14.00" fill="#000000">6</text>
</g>
<!-- 3&#45;&gt;6 -->
<g id="edge8" class="edge">
<title>3-&gt;6</title>
<path fill="none" stroke="#000000" d="M148.4648,-267.6974C153.6611,-254.8798 160.9362,-236.9346 166.9281,-222.1545"/>
<polygon fill="#000000" stroke="#000000" points="170.3166,-223.112 170.8301,-212.5296 163.8294,-220.482 170.3166,-223.112"/>
<text text-anchor="start" x="162.6935" y="-235.8" font-family="Times,serif" font-size="14.00" fill="#000000">ε</text>
</g>
<!-- 4 -->
<g id="node11" class="node">
<title>4</title>
<ellipse fill="none" stroke="#000000" cx="123.6935" cy="-195.6" rx="18" ry="18"/>
<text text-anchor="middle" x="123.6935" y="-191.4" font-family="Times,serif" font-size="14.00" fill="#000000">4</text>
</g>
<!-- 3&#45;&gt;4 -->
<g id="edge12" class="edge">
<title>3-&gt;4</title>
<path fill="none" stroke="#000000" d="M138.0509,-266.43C135.5623,-254.153 132.2145,-237.6372 129.3777,-223.6421"/>
<polygon fill="#000000" stroke="#000000" points="132.7475,-222.6486 127.3306,-213.5433 125.8871,-224.0393 132.7475,-222.6486"/>
<text text-anchor="start" x="133.6935" y="-235.8" font-family="Times,serif" font-size="14.00" fill="#000000">ε</text>
</g>
<!-- 7 -->
<g id="node9" class="node">
<title>7</title>
<ellipse fill="none" stroke="#000000" cx="177.6935" cy="-106.8" rx="18" ry="18"/>
<text text-anchor="middle" x="177.6935" y="-102.6" font-family="Times,serif" font-size="14.00" fill="#000000">7</text>
</g>
<!-- 6&#45;&gt;7 -->
<g id="edge9" class="edge">
<title>6-&gt;7</title>
<path fill="none" stroke="#000000" d="M177.6935,-177.2006C177.6935,-165.0949 177.6935,-149.0076 177.6935,-135.2674"/>
<polygon fill="#000000" stroke="#000000" points="181.1935,-134.872 177.6935,-124.872 174.1935,-134.8721 181.1935,-134.872"/>
<text text-anchor="middle" x="181.1935" y="-147" font-family="Times,serif" font-size="14.00" fill="#000000">b</text>
</g>
<!-- 8 -->
<g id="node10" class="node">
<title>8</title>
<ellipse fill="none" stroke="#000000" cx="123.6935" cy="-18" rx="18" ry="18"/>
<text text-anchor="middle" x="123.6935" y="-13.8" font-family="Times,serif" font-size="14.00" fill="#000000">8</text>
</g>
<!-- 7&#45;&gt;8 -->
<g id="edge10" class="edge">
<title>7-&gt;8</title>
<path fill="none" stroke="#000000" d="M168.2874,-91.3322C160.0526,-77.7906 147.9505,-57.8894 138.4308,-42.2348"/>
<polygon fill="#000000" stroke="#000000" points="141.3593,-40.3142 133.1729,-33.5885 135.3783,-43.9513 141.3593,-40.3142"/>
<text text-anchor="start" x="154.6935" y="-58.2" font-family="Times,serif" font-size="14.00" fill="#000000">ε</text>
</g>
<!-- 8&#45;&gt;9 -->
<g id="edge11" class="edge">
<title>8-&gt;9</title>
<path fill="none" stroke="#000000" d="M111.3663,-31.6302C97.7405,-48.1567 77.6935,-77.4576 77.6935,-106.8 77.6935,-379.8935 77.6935,-379.8935 77.6935,-379.8935 77.6935,-403.1949 82.6603,-429.2066 87.2246,-448.1905"/>
<polygon fill="#000000" stroke="#000000" points="83.8471,-449.1109 89.6848,-457.9523 90.6348,-447.4001 83.8471,-449.1109"/>
<text text-anchor="start" x="77.6935" y="-235.8" font-family="Times,serif" font-size="14.00" fill="#000000">ε</text>
</g>
<!-- 5 -->
<g id="node12" class="node">
<title>5</title>
<ellipse fill="none" stroke="#000000" cx="123.6935" cy="-106.8" rx="18" ry="18"/>
<text text-anchor="middle" x="123.6935" y="-102.6" font-family="Times,serif" font-size="14.00" fill="#000000">5</text>
</g>
<!-- 4&#45;&gt;5 -->
<g id="edge13" class="edge">
<title>4-&gt;5</title>
<path fill="none" stroke="#000000" d="M123.6935,-177.2006C123.6935,-165.0949 123.6935,-149.0076 123.6935,-135.2674"/>
<polygon fill="#000000" stroke="#000000" points="127.1935,-134.872 123.6935,-124.872 120.1935,-134.8721 127.1935,-134.872"/>
<text text-anchor="middle" x="126.8008" y="-147" font-family="Times,serif" font-size="14.00" fill="#000000">a</text>
</g>
<!-- 5&#45;&gt;8 -->
<g id="edge14" class="edge">
<title>5-&gt;8</title>
<path fill="none" stroke="#000000" d="M123.6935,-88.4006C123.6935,-76.2949 123.6935,-60.2076 123.6935,-46.4674"/>
<polygon fill="#000000" stroke="#000000" points="127.1935,-46.072 123.6935,-36.072 120.1935,-46.0721 127.1935,-46.072"/>
<text text-anchor="start" x="123.6935" y="-58.2" font-family="Times,serif" font-size="14.00" fill="#000000">ε</text>
</g>
</g>
</svg>